# xmcd
#
# Track frame offsets:
#	150
#	15820
#	34708
#	57130
#	75627
#	91279
#	110197
#	132597
#
# Disc length: 2015 seconds
#
# Revision: 1
# Processed by: cddbd v1.5.1PL2 Copyright (c) Steve Scherf et al.
# Submitted via: audiograbber 1.83.01
#
DISCID=5c07dd08
DTITLE=Various Artist - Sm 9167
DYEAR=1900
DGENRE=Country
TTITLE0=Rimes, Leann - Big Deal
TTITLE1=Yearwood, Trisha - Real Live Woman
TTITLE2=McBride, Martina - Love's The Only House
TTITLE3=Messina, Jo Dee - Because You Loved Me
TTITLE4=Rimes, Leann - Big Deal (Vocals)
TTITLE5=Yearwood, Trisha - Real Live Woman (Vocals)
TTITLE6=McBride, Martina - Love's The Only House (Vocals)
TTITLE7=Messina, Jo Dee - Because You Loved Me (Vocals)
EXTD=
EXTT0=
EXTT1=
EXTT2=
EXTT3=
EXTT4=
EXTT5=
EXTT6=
EXTT7=
PLAYORDER=
